# xmcd CD database file
#
# Track frame offsets:
#	150
#	17677
#	36395
#	49367
#	69247
#	90007
#	106512
#	128395
#	143887
#	176025
#	194200
#
# Disc length: 2761 seconds
#
# Revision: 1
# Processed by: cddbd v1.5.2PL0 Copyright (c) Steve Scherf et al.
# Submitted via: CDex 1.70beta2
#
DISCID=8d0ac70b
DTITLE=平賀マリカ - Faith
DYEAR=2006
DGENRE=Jazz
TTITLE0=My favorite things
TTITLE1=Blue skies - In walked Bud
TTITLE2=Bluesette
TTITLE3=Take five
TTITLE4=Smoke gets in your eyes
TTITLE5=A foggy day
TTITLE6=Until we love
TTITLE7=Cinnamon and clove
TTITLE8=Everything must change
TTITLE9=Take the "A" train
TTITLE10=The second time around
EXTD=YEAR: 2006
EXTT0=
EXTT1=
EXTT2=
EXTT3=
EXTT4=
EXTT5=
EXTT6=
EXTT7=
EXTT8=
EXTT9=
EXTT10=
PLAYORDER=
